<svg width="108" height="45" viewBox="0 0 108 45" fill="none" xmlns="http://www.w3.org/2000/svg">
<path fill-rule="evenodd" clip-rule="evenodd" d="M82.5797 44.4348C83.4272 42.2703 84.2133 40.0444 84.9902 37.8047C85.2408 37.0779 85.6145 36.3238 85.578 35.5263C84.6667 34.6879 84.3181 36.4081 84.0788 37.0802C83.3953 38.9826 82.623 41.1813 82.0442 42.8832C81.6273 41.899 81.379 40.6299 80.9734 39.1535C80.8344 38.6432 80.6316 38.0143 80.438 37.2898C80.315 36.8341 80.1691 35.6949 79.7955 35.5787C79.4218 35.4625 79.2396 35.6949 79.0459 35.8385C79.1575 37.0118 79.6337 38.3242 80.0097 39.6707C80.1805 40.2836 80.3765 40.9306 80.5451 41.5367C80.7342 42.2202 80.7843 42.9447 81.0258 43.4528C81.1534 43.7171 81.78 44.4325 82.0442 44.4895C82.2246 44.5093 82.4071 44.4907 82.5797 44.4348Z" fill="white"/>
<path fill-rule="evenodd" clip-rule="evenodd" d="M58.5884 43.8653C59.9691 44.0932 61.4045 43.2137 62.1222 42.4664C62.5298 42.0048 62.832 41.46 63.0079 40.8698C63.1838 40.2797 63.2291 39.6583 63.1406 39.0488C62.8717 37.3173 61.6369 35.2576 59.8187 35.2166C59.0145 35.1984 58.2649 35.6381 57.6246 36.0459C56.9844 36.4538 56.2576 37.0598 55.9637 37.7023C55.0273 39.8235 56.1688 42.6965 57.7864 43.6079C58.0362 43.741 58.3078 43.8282 58.5884 43.8653ZM58.7479 42.8287C57.3809 42.2864 56.1802 40.0126 56.8751 38.2719C57.0505 37.8299 57.6087 37.4745 58.1054 37.1327C58.6021 36.791 59.0418 36.2624 59.6592 36.2533C60.7232 36.2373 61.7736 37.7046 62.0151 38.9987C62.3682 40.8989 61.384 41.5938 60.3541 42.2613C59.8142 42.6122 59.4792 42.9221 58.9097 42.8309C58.8641 42.8218 58.7821 42.8469 58.7479 42.8287Z" fill="white"/>
<path fill-rule="evenodd" clip-rule="evenodd" d="M89.0594 43.8654C90.4446 44.0933 91.8641 43.2275 92.5954 42.4665C93.9123 41.0995 93.9328 38.5933 92.8096 36.8731C92.2719 36.0551 91.3947 35.2395 90.292 35.2144C89.4923 35.1962 88.745 35.6291 88.0956 36.0438C87.4964 36.4242 86.8197 36.9961 86.544 37.4928C85.3365 39.6686 86.6762 42.7148 88.2574 43.6057C88.5085 43.7362 88.7795 43.8239 89.0594 43.8654ZM87.1866 39.876C87.0407 38.2811 87.6741 37.7571 88.5786 37.1419C89.0343 36.823 89.5378 36.2716 90.1302 36.2625C91.176 36.2465 92.24 37.7161 92.4861 38.9555C92.8779 40.9058 91.8344 41.6599 90.7727 42.323C90.251 42.6488 89.875 42.9472 89.3282 42.8401C88.2938 42.6283 87.2959 41.1017 87.1866 39.876Z" fill="white"/>
<path fill-rule="evenodd" clip-rule="evenodd" d="M106.464 43.2957C106.565 43.0831 106.602 42.8456 106.571 42.6122C106.165 42.2272 105.42 42.3616 104.748 42.4049C104.076 42.4482 103.381 42.4732 102.926 42.6646C102.832 42.013 102.871 41.2315 102.818 40.5412C103.639 40.297 104.483 40.1404 105.336 40.0741C105.773 40.0376 106.138 40.1356 106.3 39.8668C106.343 39.7688 106.366 39.6629 106.366 39.5558C106.366 39.4486 106.343 39.3427 106.3 39.2448C106.061 38.862 105.108 39.0784 104.532 39.1422C103.953 39.1926 103.381 39.2994 102.823 39.4612C102.67 38.6615 102.869 37.52 102.716 36.7158C103.411 36.2738 104.994 36.8866 105.555 36.4059C105.632 36.1846 105.632 35.9437 105.555 35.7224C104.662 35.2667 103.049 35.6768 102.019 35.5675C101.816 35.5675 101.791 35.8226 101.645 35.9821C101.547 36.0846 101.461 36.0163 101.376 36.1371C101.16 36.4537 101.333 36.8206 101.697 37.0689C101.723 37.9119 101.643 39.067 101.752 39.6594C101.524 39.8873 101.203 39.9556 101.217 40.3429C101.228 40.6574 101.467 40.7599 101.752 40.9125C101.738 41.5001 101.756 42.088 101.805 42.6737C101.83 43.1932 101.682 43.8904 102.235 43.8653C103.069 43.8289 104.252 43.4096 105.393 43.3982C105.789 43.396 106.127 43.5304 106.464 43.2957Z" fill="white"/>
<path fill-rule="evenodd" clip-rule="evenodd" d="M2.56997 43.5622C2.55402 41.6301 2.56997 39.3176 2.46288 36.9321C2.42871 36.1893 2.51984 35.18 1.6609 35.4306C1.18699 35.5696 1.36243 36.6632 1.39205 37.2966C1.42622 38.0075 1.42622 38.9143 1.44673 39.4702C1.50141 41.0309 1.40572 42.4549 1.6609 43.667C1.79857 43.765 1.96768 43.8085 2.13556 43.7892C2.30344 43.7698 2.4582 43.6889 2.56997 43.5622Z" fill="white"/>
<path fill-rule="evenodd" clip-rule="evenodd" d="M37.7551 42.9836C37.9579 42.8538 38.0422 42.4459 37.9168 42.1566C36.7913 41.6667 34.6314 41.8786 33.5879 42.2591C33.661 41.9302 33.7872 41.6155 33.9616 41.3272C34.7425 39.8582 35.7156 38.4998 36.8551 37.2877C37.1513 36.9596 38.172 36.3057 38.0854 35.7315C37.9738 34.9797 36.0144 35.4103 35.1942 35.4741C34.1338 35.523 33.078 35.644 32.0341 35.8363C31.9604 35.9646 31.9262 36.1117 31.936 36.2593C31.9457 36.4069 31.9988 36.5483 32.0888 36.6657C33.1983 36.832 34.7545 36.529 36.0509 36.4583C36.0258 36.7181 35.6863 36.9322 35.4608 37.1829C34.1215 38.7089 33.0368 40.4406 32.2482 42.3115C32.0546 42.7672 31.5647 43.8129 32.3553 43.8129C32.8702 43.8129 33.2917 43.4438 33.8545 43.2434C34.389 43.0473 34.9478 42.9254 35.5154 42.8811C36.3493 42.8219 36.9098 43.036 37.7551 42.9836Z" fill="white"/>
<path fill-rule="evenodd" clip-rule="evenodd" d="M40.4868 43.6056C40.603 42.3001 40.4868 40.9012 40.4321 39.5045C40.3774 38.1079 40.4868 36.734 40.2179 35.5151C39.7782 35.3191 39.3453 35.3624 39.2542 35.9822C39.2494 36.2422 39.2677 36.5022 39.3088 36.7591C39.3681 38.0783 39.4068 40.9422 39.4683 42.3024C39.5048 43.0656 39.3088 43.7469 39.9513 43.8038C40.1464 43.7968 40.3341 43.7273 40.4868 43.6056Z" fill="white"/>
<path fill-rule="evenodd" clip-rule="evenodd" d="M43.9727 43.6578C44.18 43.2568 44.0478 42.8102 44.0251 42.3614C43.9499 40.7278 43.9909 38.9074 43.8656 37.2875C45.2816 38.3788 46.3282 39.8788 46.8639 41.5845C47.0621 42.1928 47.1442 42.8171 47.3993 43.4505C47.7092 43.5689 48.1603 43.4915 48.3107 43.2955C48.3107 41.4728 48.2423 39.3471 48.1489 37.39C48.1193 36.7498 48.2697 36.023 47.9894 35.4739C47.7884 35.3823 47.5666 35.3461 47.3469 35.3691C46.9892 35.5582 47.0712 35.9728 47.0781 36.4057C47.0918 37.3171 47.1191 38.4563 47.1328 39.3676C46.8457 39.1238 46.6771 38.7661 46.4356 38.4358C45.7384 37.5085 44.8635 36.5242 43.8109 35.8976C43.8473 34.4121 41.8424 35.7974 42.7401 36.5174C42.8562 38.0257 42.8107 39.7846 42.9542 41.4911C43.0613 42.7943 42.6922 44.3071 43.9727 43.6578Z" fill="white"/>
<path fill-rule="evenodd" clip-rule="evenodd" d="M54.3027 43.6578C54.5169 42.7191 54.2776 41.3794 54.2503 40.3427C54.3642 40.1012 54.665 40.0192 54.6786 39.7207C54.6923 39.4223 54.4508 39.2787 54.1956 39.0987C54.2184 38.3355 54.125 37.4446 54.0885 36.6654C54.068 36.2394 54.1911 35.7541 53.8744 35.4738C53.6673 35.3958 53.4389 35.3958 53.2319 35.4738C52.6623 35.7951 53.2911 38.2535 53.1248 39.1511C52.2704 39.2719 51.3704 39.3516 50.6619 39.6182C50.4226 38.356 50.7257 36.5606 50.393 35.5171C50.2518 35.385 49.8508 35.385 49.6434 35.467C49.3199 35.745 49.4634 36.1938 49.4839 36.6062C49.5318 37.6542 49.5022 38.9028 49.5363 39.9736C49.3905 40.2015 49.0807 40.2379 49.0556 40.5432C49.0305 40.8485 49.2948 41.0354 49.591 41.1652C49.7254 42.2611 49.1171 44.0246 50.5024 43.7033C50.9284 43.0381 50.5297 41.7325 50.6095 40.7414C51.4065 40.418 52.2557 40.242 53.1157 40.222C53.3298 41.2245 53.184 42.5755 53.3845 43.5894C53.5417 43.8492 54.0954 43.8811 54.3027 43.6578Z" fill="white"/>
<path fill-rule="evenodd" clip-rule="evenodd" d="M13.7636 42.7263C13.1894 42.3526 13.3284 41.2909 13.2806 40.2383C13.2373 39.2814 13.2077 38.2265 13.1735 37.4427C13.1439 36.7319 13.3603 35.5995 12.7998 35.4742C12.0639 35.3102 12.1026 35.9527 12.1026 36.561C12.1026 38.1354 12.1026 40.0971 12.2097 41.5734C12.3168 43.0498 12.8044 43.9293 14.6203 43.7493C16.2151 43.5921 17.9079 42.102 18.1016 41.0038C18.2201 40.3203 18.0447 39.2039 17.9945 38.1559C17.9672 37.6068 18.1677 35.693 17.6733 35.513C16.5683 35.1165 16.8986 36.9324 16.9237 37.8961C16.9237 38.3769 16.967 38.8804 16.9761 39.3475C16.9761 39.8669 17.1082 40.3932 17.0308 40.7965C16.91 41.4231 16.2538 41.856 15.7982 42.1453C15.2377 42.5121 14.6134 42.8174 13.7636 42.7263Z" fill="white"/>
<path fill-rule="evenodd" clip-rule="evenodd" d="M30.685 42.1565C29.6073 42.2681 28.9831 42.8217 27.6867 42.7261C27.5454 41.637 27.5887 40.3543 27.5272 39.0465C27.4657 37.7387 27.6343 36.4286 27.3654 35.3692C27.2318 35.2977 27.0809 35.2647 26.9296 35.274C26.7784 35.2832 26.6327 35.3343 26.5087 35.4216C26.2809 36.4537 26.4563 37.6179 26.4563 38.789C26.4563 39.9601 26.5156 41.1221 26.5634 42.2066C26.5839 42.6623 26.4518 43.2341 26.7229 43.6055C27.7353 43.8015 28.7789 43.7665 29.7759 43.503C30.5961 43.266 31.4118 42.8787 30.685 42.1565Z" fill="white"/>
<path fill-rule="evenodd" clip-rule="evenodd" d="M9.69229 36.9753C9.67406 37.5927 10.2026 38.1145 10.7654 37.6998C10.8953 37.4128 10.9203 35.5399 10.4442 35.369C10.1047 35.2506 9.76064 35.4875 9.58521 35.7837C9.27746 35.6623 8.95188 35.5923 8.62145 35.5764C6.15169 35.4625 4.84618 37.1712 4.60468 38.9438C4.28342 41.3111 5.88512 43.619 8.25008 43.7102C9.43711 43.7535 10.7973 43.2773 11.3031 42.4138C11.9866 41.2495 11.0502 40.0625 10.23 39.7731C9.79478 39.6542 9.341 39.6186 8.89258 39.6683C8.27742 39.7344 6.87622 40.1947 6.96507 40.8075C7.06304 41.491 8.24096 40.9739 8.62373 40.8599C9.55559 40.5865 10.6583 40.6458 10.3918 41.7417C10.1639 42.6371 8.2478 42.9059 7.28632 42.4662C6.32485 42.0265 5.7712 40.8485 5.69146 39.8757C5.46818 37.7819 7.40252 35.8657 9.69229 36.9753Z" fill="white"/>
<path fill-rule="evenodd" clip-rule="evenodd" d="M25.2764 43.4507C25.3881 42.6943 25.306 41.751 25.3311 40.9126C25.4769 40.7144 25.7275 40.6688 25.7594 40.343C25.7833 40.2113 25.7583 40.0754 25.6891 39.9609C25.6199 39.8464 25.5112 39.761 25.3835 39.721C25.3379 38.1694 24.9483 36.9528 23.9914 36.0961C23.7636 35.8796 23.2919 35.4559 22.9206 35.5242C22.5834 35.588 22.2371 36.3581 22.0092 36.7158C21.1739 38.0182 20.5244 39.4307 20.0794 40.9126C19.7764 41.2133 18.7967 41.3045 18.7944 41.8968C18.8037 41.9981 18.8397 42.0951 18.8985 42.1779C18.9574 42.2608 19.0372 42.3267 19.1297 42.3688C19.2223 42.4109 19.3243 42.4278 19.4255 42.4177C19.5266 42.4076 19.6233 42.371 19.7058 42.3115C19.4552 43.0679 19.7058 43.9497 20.5625 43.5532C20.8131 43.0201 20.7903 42.2158 20.9908 41.6371C21.9803 41.1659 23.0556 40.9015 24.1509 40.8602C24.3013 41.612 24.1099 42.6943 24.258 43.4507C24.3221 43.5223 24.4006 43.5796 24.4883 43.6188C24.5761 43.658 24.6711 43.6783 24.7672 43.6783C24.8633 43.6783 24.9583 43.658 25.0461 43.6188C25.1338 43.5796 25.2123 43.5223 25.2764 43.4507ZM23.1894 36.873C24.0689 37.3492 24.3286 38.42 24.3127 39.7734C23.3222 39.7985 22.3431 39.9911 21.4168 40.343C21.3849 40.343 21.353 40.343 21.3644 40.2906C21.8857 39.107 22.4958 37.9646 23.1894 36.873Z" fill="white"/>
<path fill-rule="evenodd" clip-rule="evenodd" d="M73.7441 43.503C73.8626 42.7375 73.7646 41.7623 73.7965 40.9125C73.9492 40.7029 74.2522 40.6733 74.2796 40.3429C74.2961 40.212 74.268 40.0794 74.1998 39.9665C74.1315 39.8536 74.0272 39.7671 73.9036 39.7209C73.8307 38.2331 73.4799 36.9869 72.5662 36.1461C72.3133 35.9183 71.8645 35.5082 71.5478 35.5241C71.165 35.5446 70.764 36.235 70.5294 36.6132C69.7239 37.9747 69.0605 39.4154 68.5494 40.9125C68.2373 41.2087 67.2736 41.3317 67.3168 41.9492C67.3373 42.2317 67.7292 42.5803 68.2282 42.3114C68.2077 42.6532 68.0983 42.9106 68.1211 43.2957C68.3102 43.5007 68.39 43.6716 68.7089 43.6579C69.3924 43.6283 69.2557 42.3205 69.4585 41.6894C70.455 41.1706 71.557 40.8869 72.6801 40.8601C72.8032 41.5869 72.6984 42.5347 72.7325 43.3458C72.7796 43.4331 72.8463 43.5082 72.9272 43.5654C73.0082 43.6226 73.1013 43.6603 73.1993 43.6756C73.2973 43.6908 73.3975 43.6831 73.492 43.6532C73.5865 43.6233 73.6728 43.5719 73.7441 43.503ZM71.7688 36.8205C72.4751 37.4494 72.933 38.3197 72.7872 39.7824C71.648 39.7596 70.6843 40.1652 69.8937 40.2996C70.3924 39.0761 71.021 37.9098 71.7688 36.8205Z" fill="white"/>
<path fill-rule="evenodd" clip-rule="evenodd" d="M99.1824 36.9755C99.2712 37.4312 99.351 37.8868 99.7702 37.9073C100.31 37.9415 100.358 37.4015 100.306 36.7681C100.265 36.2601 100.258 35.5743 99.9319 35.4216C99.6061 35.269 99.3077 35.4216 99.0206 35.7839C96.3162 34.9022 94.236 36.9231 94.0401 39.0989C93.8441 41.2748 95.3 43.6147 97.5761 43.7104C98.0777 43.7222 98.5761 43.6268 99.0379 43.4303C99.4996 43.2338 99.9139 42.9409 100.253 42.5712C100.369 42.4413 100.789 41.9583 100.734 41.6393C100.698 41.5025 100.612 41.3842 100.493 41.3075C100.374 41.2307 100.231 41.2012 100.091 41.2247C99.5925 41.2702 99.4694 41.9423 99.1277 42.2089C98.2459 42.8924 96.6215 42.5962 95.9676 41.8466C94.4821 40.1333 95.0745 36.6747 97.7356 36.6064C98.3325 36.5995 98.6242 36.7659 99.1824 36.9755Z" fill="white"/>
<path fill-rule="evenodd" clip-rule="evenodd" d="M104.108 33.8154C104.404 34.0227 104.821 34.3052 105.179 34.5923C105.466 34.8202 105.837 35.4194 106.25 34.9045C106.131 34.4351 105.696 34.246 105.286 33.9202C105.003 33.6924 104.555 33.1569 104.163 33.1433C103.734 33.125 103.233 33.6673 102.878 33.9202C102.422 34.2369 102.016 34.426 101.752 34.7996C102.003 35.5151 102.664 34.8224 103.144 34.4898C103.482 34.2897 103.804 34.0642 104.108 33.8154Z" fill="white"/>
<path fill-rule="evenodd" clip-rule="evenodd" d="M22.5559 30.0856C23.8637 30.0856 24.8548 30.0856 25.8231 30.138C26.7914 30.1904 27.7643 30.482 28.8739 30.3453C29.6646 30.218 30.4058 29.8777 31.0178 29.3611C32.0773 28.4269 32.9089 26.7295 33.1048 24.8544C33.5035 21.0541 33.4716 16.1966 33.1595 12.3234C33.0775 11.3163 32.9704 10.3138 32.8906 9.31819C32.7949 8.11749 32.9932 6.82792 32.7836 5.7457C32.5033 4.2807 31.5487 2.94785 30.4277 2.32813C29.2498 1.67652 27.361 1.52614 25.4472 1.60361C23.5333 1.68107 21.5512 1.69246 19.7695 1.75854C17.084 1.82538 14.3971 1.70204 11.7291 1.38944C10.8314 1.28919 9.90638 1.12287 9.04971 1.18211C8.47784 1.22312 8.54391 1.45551 8.13836 1.54437C7.58244 1.6674 6.70754 1.57399 6.04909 1.59677C4.63422 1.64462 3.54288 1.67879 2.63152 2.21877C1.62676 2.80203 0.660729 4.13261 0.382767 5.429C0.211889 6.19681 0.257457 7.10816 0.214167 7.96711C0.0956918 10.405 0 13.0023 0 15.7387C0 17.452 0.132146 19.1836 0.214167 20.865C0.303024 22.6649 -0.072908 24.4443 0.054681 26.046C0.0974742 26.7021 0.300303 27.3377 0.645441 27.8973C0.99058 28.457 1.46752 28.9235 2.03459 29.2563C3.17378 29.9079 4.79598 29.9831 6.69387 29.9831C8.48467 29.9831 9.936 30.0355 11.8362 30.0355C12.8045 30.0355 13.7044 29.9762 14.5702 30.0355C15.3585 30.0879 16.1241 30.2815 16.8737 30.3977C18.4913 30.6461 20.0133 30.8876 21.5329 31.0698C21.6263 31.0812 21.6491 31.1154 21.7471 31.1222C22.4511 31.1747 22.2256 30.5071 22.5559 30.0856ZM21.8496 27.7024C21.7813 28.3107 21.7585 29.6345 21.1 29.6208C20.9998 29.6208 20.9793 29.5798 20.8859 29.5684C16.6071 29.0899 11.2324 28.4452 7.28397 27.4951C6.70754 27.3584 6.01719 27.3037 5.68911 26.8116C5.69594 24.7132 6.02631 22.6239 6.32022 20.5506C6.9012 16.4495 7.64167 12.4578 8.3548 8.53215C8.71251 6.56591 8.94035 4.55411 9.69221 2.78381C13.7933 3.11189 17.7622 3.90477 21.5398 4.54499C22.8179 4.76144 24.128 4.8708 25.2353 5.42444C24.9118 6.57958 25.29 8.41367 24.431 9.05162C21.5215 9.01061 19.1384 8.01952 16.0671 7.96711C15.4747 8.51392 15.1558 9.33414 14.8869 10.143C14.5481 11.0376 14.3677 11.9843 14.3538 12.9408C15.354 13.679 16.8714 13.7382 18.3181 13.9775C19.7649 14.2167 21.2755 14.399 22.5559 14.7544C22.7838 16.0394 23.0116 18.2677 22.3942 19.3111C19.3366 19.0651 16.8167 18.0444 13.709 18.017C13.3272 18.8457 13.0398 19.7146 12.8523 20.6075C12.6245 21.5348 12.3374 22.6239 12.6928 23.6104C15.4679 24.4489 19.2819 24.2826 21.9043 25.2691C21.9738 26.0798 21.9555 26.8956 21.8496 27.7024ZM3.9621 28.6365C2.96872 28.1285 2.03231 26.905 1.71334 25.6747C1.5493 25.039 1.59258 24.2233 1.55385 23.3963C1.43993 21.0404 1.33969 18.6117 1.33969 16.1966C1.33969 13.5993 1.64727 11.3961 1.49917 9.04934C1.44905 8.24507 1.33285 7.45448 1.39209 6.66616C1.6222 3.62225 4.45878 2.75874 7.87179 3.00709C6.18807 10.7695 5.1628 19.1836 4.17626 27.6136C5.63898 28.4611 7.76243 28.6684 9.58513 29.1674C7.59838 28.9988 5.28583 29.3109 3.9621 28.6365ZM24.7956 2.84077C25.8505 2.7633 26.9555 2.5423 28.0081 2.68356C29.0174 2.82254 29.8786 3.5015 30.4186 4.18729C31.3072 5.31508 31.6694 6.82337 31.8107 8.58911C31.9626 10.4012 32.034 12.2489 32.0249 14.1324C32.0249 17.1148 31.7127 19.7395 31.5441 22.3163C31.478 23.3074 31.6034 24.2917 31.4894 25.1643C31.3215 26.1081 30.8948 26.9868 30.2568 27.7024C28.8761 29.2175 25.6272 29.238 22.761 29.0512C23.0129 27.8894 23.1917 26.713 23.2964 25.5288C23.3237 25.2076 23.4923 24.6448 23.3488 24.3372C23.1346 23.8816 21.8473 23.738 21.2071 23.6104C19.3844 23.2527 18.0174 23.1138 16.2266 22.8335C15.493 22.7196 14.2672 22.5806 14.0302 22.15C13.5108 21.2227 14.4973 20.1633 14.7798 19.5071C16.3428 19.5071 17.6939 19.8921 19.0108 20.1906C20.4097 20.4982 21.7448 20.8468 23.1346 20.9151C23.7202 20.104 23.8181 18.8395 23.9389 17.6001C24.0597 16.3607 24.1804 14.9868 23.9913 13.818C22.5559 13.2598 19.9768 13.1048 17.9992 12.7859C17.384 12.6856 16.3792 12.5375 16.1241 12.2664C15.493 11.6125 16.1013 9.84222 16.7096 9.41844C19.8993 9.28401 22.2575 10.405 25.3834 10.5052C26.0669 9.87183 26.3358 8.81011 26.5636 7.77117C26.7914 6.73223 26.9464 5.51558 27.099 4.40601C25.5748 3.66782 23.5447 3.42175 21.7425 2.95468C22.8088 2.87494 23.7794 2.91367 24.7956 2.84077Z" fill="black"/>
<path fill-rule="evenodd" clip-rule="evenodd" d="M63.9427 30.5528C63.9464 30.5656 63.9534 30.5772 63.963 30.5864C63.9726 30.5956 63.9845 30.6021 63.9974 30.6052C66.1664 30.7373 67.415 29.8465 68.2807 28.5843C69.1465 27.322 69.4883 25.8502 69.6204 23.7154C69.8483 20.013 69.9143 15.5611 69.6204 11.8017C69.5452 10.8539 69.4336 9.90385 69.3516 8.95149C69.2536 7.8123 69.445 6.5478 69.2445 5.48152C69.0068 4.22834 68.3456 3.09494 67.3717 2.27129C65.2756 0.612632 60.8327 1.23919 57.5177 1.38956C57.0051 1.41234 56.3329 1.48753 55.9638 1.38956C55.3692 1.23235 55.7041 0.797181 55.0525 0.612632C54.1548 0.357454 52.9063 0.612632 51.8947 0.715159C50.7919 0.838191 49.8737 1.0478 49.0011 1.12982C47.4404 1.2802 45.6565 1.05008 43.9135 1.12982C41.97 1.22096 39.8443 1.06603 38.5593 1.75182C37.4657 2.33508 36.3835 3.7454 36.0964 5.16938C35.9624 6.0434 35.8909 6.92584 35.8822 7.81002C35.7455 10.5691 35.7205 13.0981 35.7205 16.0988C35.7205 18.1789 35.9255 19.7578 35.9346 21.5896C35.9506 24.3647 35.4106 26.495 36.4176 28.1149C37.2082 29.3885 38.6641 30.1655 40.8628 30.2406C43.6811 30.3341 46.9027 30.1108 49.9763 30.2908C50.5664 30.3249 51.1154 30.4434 51.6372 30.4457C52.6989 30.4457 53.6239 30.2406 54.6902 30.2908C56.4674 30.3728 58.6888 30.2589 60.8418 30.3432C61.8717 30.3865 62.8833 30.4776 63.9427 30.5528ZM44.6563 29.3612C43.4191 29.3065 41.888 29.4546 40.6942 29.2063C39.0241 28.8554 37.7323 27.2696 37.427 25.5791C37.2971 24.8751 37.3176 24.0617 37.2675 23.2483C37.0796 20.8229 37.0256 18.3889 37.1057 15.9575C37.2287 13.4513 37.3609 11.0362 37.2128 8.60062C37.1275 7.77487 37.11 6.94352 37.1604 6.11491C37.246 5.51857 37.4696 4.95042 37.8133 4.45563C38.157 3.96084 38.6113 3.55304 39.1403 3.26466C41.1498 2.23939 43.9727 2.77937 46.7524 2.63355C47.8278 7.87382 49.4454 12.6288 50.8215 17.6549C51.0289 18.409 51.259 19.2839 51.4663 20.193C51.799 21.6671 52.0177 23.2688 50.3408 23.1982C49.4955 23.1617 48.9191 22.6514 48.3586 22.3164C48.0715 22.1456 47.5954 21.8312 47.3425 21.8608C46.9551 21.8927 46.4676 22.5602 46.1645 22.8974C45.4499 23.6867 44.8043 24.5359 44.2348 25.4355C44.0251 25.7545 43.4328 26.413 43.4852 26.937C43.5444 27.5203 44.5628 28.0283 45.039 28.3359C45.661 28.7341 46.3045 29.0977 46.9665 29.425C46.2192 29.4364 45.3739 29.3931 44.6563 29.3612ZM60.3019 2.52875C61.9628 2.47179 63.9473 2.02523 65.2277 2.58115C66.5947 3.16669 67.5972 4.70232 68.0142 6.36325C68.242 7.23815 68.2716 8.29532 68.3354 9.32514C68.5974 13.5287 68.4083 17.9647 68.0666 21.8562C67.9732 22.9293 68.0461 23.9911 67.9595 25.0163C67.8319 26.5611 66.8704 27.9509 65.9249 28.5387C63.6784 29.9331 59.5933 29.1812 56.3922 29.1607C57.4995 28.3268 58.7503 27.3676 59.4976 26.1054C61.4411 22.8245 60.2495 17.3519 59.3905 13.8272C58.4017 9.7717 57.3559 5.99416 56.178 2.58798C57.7934 2.60393 59.1376 2.56976 60.3019 2.52875ZM51.0904 1.95915C52.1931 1.76321 53.4531 1.56499 54.6241 1.80422C55.2826 2.96847 55.5355 4.29449 55.8568 5.58633C56.8934 9.63045 57.8845 13.4855 58.8551 17.6617C59.1923 19.1039 59.4429 20.5325 59.3905 21.9086C59.3864 23.267 58.9561 24.5899 58.1602 25.6907C56.7932 27.6228 54.8019 29.2427 51.2522 29.0058C49.5574 28.8485 47.9147 28.3361 46.4311 27.502C46.0483 27.2742 45.4036 26.8686 45.3603 26.52C45.2896 25.9618 46.0438 25.0573 46.2716 24.7589C46.602 24.3328 47.1966 23.5308 47.7161 23.5149C48.0077 23.5149 48.2242 23.7427 48.5204 23.8771C49.2814 24.2462 50.2633 24.8978 51.3592 24.7065C51.9379 24.6039 52.5144 23.9819 52.7513 23.4625C53.3346 22.1775 52.8242 20.5165 52.4825 19.3614C51.3433 15.5451 50.1881 11.6468 49.1629 7.86243C48.7072 6.21972 48.2629 4.55194 48.1991 2.88873C48.9145 2.36243 50.0059 2.15281 51.0904 1.95915Z" fill="black"/>
<path fill-rule="evenodd" clip-rule="evenodd" d="M94.5229 30.5003C95.9358 30.5044 97.3481 30.4352 98.7538 30.2929C99.451 30.2268 100.182 30.1562 100.841 30.138C101.6 30.1175 102.256 30.2337 102.823 30.138C103.477 30.0364 104.1 29.7888 104.646 29.4135C105.974 28.4679 106.528 26.1508 106.842 24.3372C107.687 19.4615 107.542 12.6196 106.842 7.34739C106.699 6.26972 106.598 5.11687 106.252 4.34222C105.635 2.95924 103.974 1.46463 102.021 1.28691C100.973 1.19122 99.9044 1.28691 98.8085 1.28691H82.9009C81.9462 1.28691 80.8185 1.28691 79.7408 1.33704C78.6631 1.38716 77.5627 1.37577 76.9042 1.64918C76.3688 1.87701 75.8789 2.56053 75.5098 3.15063C75.1407 3.74073 74.701 4.59739 74.5985 5.27407C74.4686 6.13302 74.5985 7.15145 74.5985 8.12432V25.2121C74.5985 26.3308 74.5051 27.5156 74.7056 28.01C75.0838 28.9373 77.2505 29.6368 78.5082 29.8327C81.8528 30.3271 85.5711 29.86 89.1117 30.1425C90.9071 30.2815 92.6409 30.4638 94.5229 30.5003ZM95.9674 8.43418C94.6983 8.2952 93.2835 7.95344 92.1124 8.17445C90.6458 8.48582 89.3043 9.22473 88.2574 10.2979C87.1799 11.3851 86.5165 12.8149 86.3823 14.3397C85.9721 18.156 86.9496 21.2956 89.7998 22.6786C92.6501 24.0616 97.1066 23.2186 99.7609 22.2229C100.775 21.8379 101.422 21.6009 101.636 22.6786C101.816 23.5899 101.914 25.6405 101.636 26.3559C101.458 26.8116 100.852 27.2376 100.351 27.5475C99.8279 27.8957 99.2715 28.191 98.69 28.4292C94.0786 30.1403 89.2052 28.2811 86.159 26.4083C84.5567 25.424 83.0996 24.2208 81.8301 22.8335C81.3744 22.3346 80.8504 21.8561 80.5975 21.3845C80.1965 20.628 80.0165 19.6985 79.7955 18.794C79.5353 17.8272 79.3915 16.8329 79.3671 15.8321C79.3671 12.4145 80.9779 9.74425 82.8485 7.54334C84.7509 5.30597 87.1501 3.53795 90.2373 3.03899C91.3878 2.85216 92.9918 2.98658 94.3611 2.98658C95.432 2.98658 97.2114 2.80887 97.8425 3.24404C98.3437 3.59035 98.4485 5.04168 98.5921 5.78215C98.7926 6.81426 99.0067 7.51827 99.0204 8.58C97.9701 8.74404 96.963 8.54354 95.9674 8.43418ZM83.9717 29.0512C83.0376 29.0512 81.8642 29.0512 81.1329 28.9988C79.3512 28.8986 77.0318 28.395 76.207 27.4039C75.6397 26.7204 75.724 25.7202 75.724 24.3486V11.387C75.724 9.63033 75.56 7.86914 75.724 6.20593C75.7673 5.77759 75.9063 5.19661 75.9929 4.65208C76.0885 4.05058 76.2207 3.49238 76.4212 3.25315C77.0728 2.50357 79.0231 2.48306 80.545 2.52863C82.2538 2.58103 83.7895 2.60609 85.2043 2.78836C85.3046 3.15974 84.9195 3.41264 84.7213 3.61769C84.473 3.87287 84.2429 4.14172 84.0264 4.39462C82.6594 5.98948 81.1124 7.24259 79.8479 8.90125C78.2052 11.0566 77.3895 14.2873 77.7062 18.2768C77.934 21.1703 79.2737 23.2094 80.8663 24.7519C82.1428 25.953 83.5853 26.9643 85.1497 27.7548C85.6349 28.0145 86.2478 28.3016 86.4347 28.894C85.603 29.1446 84.7783 29.0512 83.9717 29.0512ZM100.039 8.84885C99.8725 7.58662 99.7085 6.34263 99.5558 5.06674C99.5011 4.59512 99.369 3.63364 99.7176 3.30556C99.9318 3.10278 100.34 3.09822 100.841 3.09822C102.436 3.09822 103.953 3.19164 104.429 3.97996C104.762 4.52677 104.766 5.83 104.858 6.88033C105.377 12.7813 105.974 20.0266 104.805 25.7339C104.659 26.447 104.402 28.0328 103.894 28.2219C103.497 28.37 103.456 28.1786 103.251 28.2219C103.065 27.9052 103.297 27.3288 103.306 26.8754C103.331 25.424 103.003 23.2459 102.878 21.6943C102.825 21.0609 102.846 20.4184 102.664 20.038C102.481 19.6575 101.65 19.1266 101.11 19.1562C100.741 19.1836 100.472 19.5276 100.253 19.7258C99.2915 20.5916 98.0202 21.1156 96.717 21.5918C95.6615 22.0205 94.5364 22.2522 93.3974 22.2753C90.8091 22.2548 89.0138 20.6167 88.2027 18.7529C87.6855 17.5636 87.2913 16.0189 87.6148 14.6519C87.8632 13.6243 88.7996 12.2527 89.5424 11.3892C90.2851 10.5257 91.3332 9.41844 92.7025 9.31591C93.3678 9.26807 93.951 9.51869 94.5753 9.68045C95.8421 10.0085 97.02 10.2842 98.2708 10.5599C98.8541 10.6898 99.4966 10.9427 100.146 10.6647C100.353 10.0085 100.114 9.42983 100.039 8.84885Z" fill="black"/>
<path fill-rule="evenodd" clip-rule="evenodd" d="M21.9043 25.2691C19.2819 24.2826 15.4679 24.4489 12.6929 23.6105C12.3374 22.624 12.6313 21.5349 12.8523 20.6076C13.0399 19.7147 13.3272 18.8457 13.709 18.0171C16.8167 18.0353 19.3366 19.0651 22.3851 19.3112C23.0116 18.2723 22.7838 16.0394 22.5559 14.7544C21.2755 14.399 19.7763 14.2167 18.3159 13.9775C16.8554 13.7383 15.354 13.679 14.3515 12.9409C14.3662 11.9842 14.5474 11.0375 14.8869 10.143C15.1603 9.33646 15.4748 8.51397 16.0671 7.96716C19.1384 8.01956 21.5216 9.01066 24.4197 9.05622C25.2786 8.41828 24.9004 6.58419 25.2239 5.42905C24.1166 4.8754 22.8066 4.76604 21.5284 4.5496C17.7714 3.91849 13.8001 3.1165 9.69223 2.7793C8.94037 4.5496 8.71253 6.5614 8.35483 8.52764C7.64169 12.4624 6.90122 16.4496 6.32024 20.5506C6.02633 22.6194 5.69596 24.7087 5.67773 26.8184C6.01721 27.2992 6.70756 27.3539 7.2726 27.502C11.221 28.452 16.5957 29.0968 20.8745 29.5753C20.9679 29.5753 20.9884 29.6254 21.0887 29.6277C21.7471 29.6414 21.7722 28.3176 21.8383 27.7093C21.9484 26.9007 21.9706 26.0825 21.9043 25.2691Z" fill="#6CC6E7"/>
<path fill-rule="evenodd" clip-rule="evenodd" d="M56.178 2.58116C57.3559 5.98733 58.4017 9.76488 59.3905 13.8204C60.2494 17.345 61.441 22.8177 59.4976 26.0986C58.7503 27.3608 57.4994 28.32 56.3921 29.1539C59.5933 29.1744 63.683 29.9262 65.9249 28.5319C66.8704 27.944 67.8319 26.5542 67.9595 25.0095C68.046 23.9842 67.9731 22.9225 68.0665 21.8494C68.4083 17.9534 68.5974 13.5174 68.3354 9.31832C68.2716 8.29988 68.2329 7.24272 68.0141 6.36782C67.5972 4.70688 66.5856 3.17809 65.2277 2.58572C63.9427 2.02979 61.9628 2.47635 60.3018 2.53331C59.1376 2.56977 57.7933 2.60394 56.178 2.58116ZM61.4182 23.4556C61.4957 22.959 61.4843 22.4144 61.5276 21.8608C61.603 21.3119 61.6387 20.7584 61.6347 20.2044C61.6028 19.8057 61.3955 19.3979 61.5276 18.9604C62.5939 18.8875 62.3911 20.0996 62.439 21.1363C62.4868 22.1729 62.6896 23.8976 62.3866 24.711C62.2385 25.1006 61.76 25.5153 61.4752 25.8502C61.0788 26.3173 60.6755 26.7616 60.4568 26.9894C60.6595 25.8069 61.2314 24.7338 61.4251 23.4556H61.4182ZM61.3134 14.6497C61.2428 14.6497 61.2382 14.7158 61.1517 14.7021C60.5616 13.9639 60.3269 12.8566 60.0262 11.8017C59.7391 10.7901 59.2538 9.84918 59.1148 8.90137C59.2949 8.66825 59.5352 8.48866 59.8097 8.3819C60.3542 10.4393 61.138 12.2529 61.3203 14.6497H61.3134ZM58.0531 5.17167C58.3037 5.00307 58.7571 5.11016 59.0692 5.17167C59.0351 5.84379 59.1421 6.6549 59.0168 7.24272C58.4791 6.7597 58.347 5.88708 58.0531 5.17167Z" fill="#FEEE62"/>
<path fill-rule="evenodd" clip-rule="evenodd" d="M9.58504 29.1538C7.76234 28.6549 5.6389 28.4475 4.17618 27.6C5.16271 19.1609 6.18798 10.7537 7.8717 3.00718C4.45414 2.77934 1.62212 3.63374 1.392 6.68448C1.33276 7.46369 1.44896 8.2634 1.49909 9.06766C1.64718 11.4144 1.3396 13.6244 1.3396 16.2149C1.3396 18.6209 1.43985 21.0588 1.55377 23.4146C1.5925 24.2439 1.55377 25.0596 1.71325 25.693C2.03223 26.9142 2.96864 28.1377 3.96201 28.6549C5.28575 29.311 7.5983 28.9989 9.58504 29.1538ZM4.55667 18.3794C3.74329 18.5662 3.69316 17.026 3.96657 16.3083C4.12605 15.8937 4.66831 15.397 4.82324 15.1168C4.98728 15.8185 5.36093 18.1948 4.55667 18.3794ZM5.46802 5.99869C5.99888 5.44504 6.37937 5.82326 6.64594 6.31083C5.90774 8.81704 5.68902 11.8427 4.66375 14.0801C4.65236 14.1211 4.61818 14.1416 4.55667 14.1325C4.84374 11.4098 5.11715 8.67123 5.46802 5.99869Z" fill="#F7F4B6"/>
<path fill-rule="evenodd" clip-rule="evenodd" d="M21.7426 2.94349C23.5448 3.39916 25.5748 3.65662 27.099 4.39481C26.9464 5.50438 26.7937 6.68686 26.5636 7.75997C26.3335 8.83309 26.0692 9.87203 25.3834 10.494C22.2575 10.3938 19.9016 9.27282 16.7096 9.40724C16.1013 9.84241 15.493 11.6127 16.1195 12.2666C16.3747 12.5377 17.3795 12.6858 17.9946 12.7861C19.9768 13.105 22.5514 13.2645 23.9913 13.8205C24.1804 14.9893 24.0642 16.3472 23.9389 17.6026C23.8136 18.8579 23.7111 20.1088 23.1346 20.9176C21.7403 20.8492 20.4006 20.5007 19.0108 20.1931C17.6939 19.9037 16.3428 19.5096 14.7798 19.5096C14.4973 20.1657 13.5108 21.2252 14.0303 22.1525C14.2581 22.5717 15.493 22.7107 16.2266 22.836C18.0242 23.1162 19.3844 23.2552 21.2071 23.6129C21.8474 23.7405 23.1346 23.8795 23.3488 24.3397C23.4924 24.6473 23.3238 25.2101 23.2964 25.5313C23.1917 26.7155 23.0129 27.8919 22.761 29.0537C25.6272 29.2405 28.8762 29.22 30.2569 27.7049C30.8948 26.9893 31.3215 26.1106 31.4895 25.1668C31.6034 24.2942 31.4781 23.3099 31.5441 22.3188C31.7127 19.742 32.0249 17.1173 32.0249 14.1349C32.0249 12.2529 31.9535 10.4052 31.8107 8.59158C31.6694 6.82584 31.3072 5.31755 30.4186 4.18976C29.8786 3.50625 29.0174 2.82273 28.0081 2.68603C26.9555 2.54477 25.8505 2.76577 24.7956 2.84324C23.7794 2.91387 22.8088 2.87514 21.7426 2.94349ZM21.8496 21.4348C22.7177 21.469 23.702 21.7424 24.046 21.1249C24.1804 20.8811 24.1713 20.3298 24.2602 19.8809C24.4265 19.0448 24.6179 18.2473 24.7956 17.5C24.8913 17.0945 24.8708 16.6342 25.1692 16.411C25.6249 16.6183 25.5201 17.4681 25.4928 17.9147C25.3902 19.4526 25.0029 21.1454 24.4196 22.1616C23.3488 22.1274 22.3942 21.9793 21.8496 21.4348Z" fill="#F7F4B6"/>
<path fill-rule="evenodd" clip-rule="evenodd" d="M99.0205 8.58926C99.0068 7.52754 98.7926 6.82352 98.5921 5.79142C98.4486 5.05095 98.3438 3.59962 97.8425 3.25331C97.2114 2.81814 95.432 3.00724 94.3612 3.00724C92.9942 3.00724 91.3879 2.87282 90.2373 3.05964C87.1501 3.54722 84.7555 5.31524 82.8485 7.56399C80.978 9.76491 79.374 12.426 79.3672 15.8527C79.3916 16.8536 79.5354 17.8479 79.7955 18.8146C80.0234 19.726 80.1965 20.6373 80.5975 21.4051C80.8504 21.8768 81.3767 22.3552 81.8301 22.8542C83.0997 24.2414 84.5567 25.4446 86.159 26.4289C89.2052 28.3018 94.0787 30.1609 98.6901 28.4499C99.2716 28.2117 99.828 27.9163 100.351 27.5681C100.852 27.2583 101.458 26.8391 101.636 26.3765C101.914 25.6566 101.816 23.6152 101.636 22.6992C101.422 21.6125 100.775 21.8494 99.7609 22.2436C97.1066 23.2483 92.698 24.105 89.7999 22.6992C86.9018 21.2935 85.9631 18.1767 86.3823 14.3604C86.5119 12.8284 87.1756 11.3906 88.2574 10.298C89.3044 9.22488 90.6458 8.48597 92.1124 8.1746C93.2835 7.94676 94.6984 8.29535 95.9674 8.43433C96.9631 8.5437 97.9701 8.74419 99.0205 8.58926Z" fill="#FEEE62"/>
<path fill-rule="evenodd" clip-rule="evenodd" d="M86.4347 28.8941C86.2479 28.3017 85.635 28.0146 85.1497 27.7549C83.5854 26.9644 82.1428 25.9531 80.8663 24.752C79.2715 23.2095 77.9363 21.1704 77.7062 18.2769C77.3895 14.2874 78.2052 11.0567 79.8479 8.90134C81.1124 7.24268 82.6571 5.98046 84.0264 4.39471C84.2429 4.14181 84.4821 3.87296 84.7213 3.61779C84.9196 3.41273 85.3046 3.16211 85.2044 2.78846C83.7895 2.60619 82.2425 2.58112 80.5451 2.52872C79.0231 2.48315 77.0728 2.50366 76.4212 3.25325C76.2139 3.49248 76.0886 4.05068 75.9929 4.65217C75.9063 5.1967 75.765 5.77769 75.724 6.20602C75.56 7.86924 75.724 9.62358 75.724 11.387V24.3373C75.724 25.7044 75.6397 26.7091 76.2071 27.3926C77.0387 28.3951 79.3512 28.8986 81.1329 28.9875C81.8643 29.0285 83.0376 29.0399 83.9718 29.0399C84.7783 29.0513 85.6031 29.1447 86.4347 28.8941ZM76.7949 9.93572C76.6035 9.16791 77.3485 8.37048 78.0275 8.48668C78.2479 8.55994 78.4368 8.70622 78.5629 8.90134C78.588 9.52789 78.5629 10.0998 78.3487 10.4962C77.7085 10.7878 76.9088 10.3914 76.7949 9.93572ZM78.8317 7.70975C79.0277 6.49538 79.8547 5.68655 80.5451 4.9757C80.7729 4.73419 81.0349 4.34687 81.4017 4.45623C81.4769 5.13974 80.9256 5.66149 80.5451 6.16729C80.1057 6.78711 79.6033 7.35976 79.0459 7.87607H78.8841C78.8819 7.79177 78.8158 7.79177 78.8317 7.70975Z" fill="#74C6EF"/>
<path fill-rule="evenodd" clip-rule="evenodd" d="M48.199 2.89108C48.2628 4.5543 48.7162 6.22207 49.1627 7.86478C50.188 11.6492 51.3454 15.5475 52.4823 19.3637C52.8241 20.5029 53.3344 22.1707 52.7512 23.4648C52.5233 23.9843 51.9378 24.604 51.3591 24.7088C50.2632 24.9002 49.2812 24.2531 48.5202 23.8795C48.224 23.7359 48.0076 23.5081 47.716 23.5172C47.1965 23.5332 46.6018 24.3352 46.2715 24.7612C46.0436 25.0597 45.2895 25.9642 45.3601 26.5224C45.4034 26.871 46.0436 27.2834 46.431 27.5044C47.9146 28.3385 49.5572 28.8508 51.252 29.0081C54.8017 29.2359 56.7998 27.6251 58.16 25.6931C58.9559 24.5922 59.3862 23.2694 59.3904 21.911C59.4428 20.5439 59.1921 19.1063 58.8549 17.6641C57.8844 13.4946 56.8933 9.63963 55.8566 5.58868C55.5262 4.29684 55.2824 2.97082 54.624 1.80657C53.4529 1.57874 52.193 1.76556 51.0902 1.9615C49.9875 2.15744 48.9144 2.3625 48.199 2.89108Z" fill="#F7ADA5"/>
<path fill-rule="evenodd" clip-rule="evenodd" d="M100.146 10.6624C99.4966 10.9404 98.8541 10.6875 98.2709 10.5576C97.0201 10.2819 95.8421 10.0063 94.5754 9.67818C93.9511 9.51641 93.3678 9.26579 92.7025 9.31364C91.3355 9.41616 90.2647 10.5462 89.5424 11.387C88.8202 12.2277 87.8633 13.622 87.6149 14.6496C87.2868 15.9984 87.6855 17.5522 88.2027 18.7507C89.0138 20.6144 90.8092 22.2525 93.3974 22.273C94.5364 22.2499 95.6615 22.0182 96.717 21.5895C98.0203 21.1133 99.2916 20.5893 100.253 19.7235C100.481 19.5253 100.741 19.1813 101.11 19.1539C101.65 19.1129 102.477 19.6233 102.664 20.0357C102.85 20.4481 102.825 21.0587 102.878 21.6921C103.003 23.2436 103.333 25.4218 103.306 26.8731C103.306 27.3288 103.065 27.9029 103.251 28.2196C103.456 28.1763 103.497 28.3677 103.894 28.2196C104.402 28.0305 104.659 26.4447 104.805 25.7316C105.974 20.0357 105.377 12.779 104.858 6.87805C104.767 5.82772 104.762 4.52449 104.429 3.97768C103.953 3.18936 102.443 3.09823 100.841 3.09595C100.34 3.09595 99.9295 3.09595 99.7177 3.30328C99.3691 3.63137 99.5012 4.59284 99.5559 5.06446C99.7085 6.34947 99.8726 7.58435 100.039 8.84657C100.114 9.42983 100.353 10.0085 100.146 10.6624ZM90.9869 21.0222C89.67 20.3638 88.8749 19.1995 88.524 17.6046C88.843 17.8849 88.9956 18.2585 89.2212 18.5889C89.4375 18.9251 89.6887 19.2374 89.9708 19.5208C90.5722 20.104 91.3013 20.4503 91.8983 20.9721C91.7023 21.0587 91.2353 20.8718 90.9869 21.0222ZM91.2558 11.1272C91.4836 10.9769 91.994 10.5554 92.1671 11.1796C90.8251 11.6763 90.2874 13.2302 89.1688 13.7701C89.7247 12.8884 90.3399 11.7401 91.2558 11.1272Z" fill="#74C6EF"/>
<path fill-rule="evenodd" clip-rule="evenodd" d="M60.4612 26.978C60.689 26.7501 61.0832 26.3058 61.4796 25.8388C61.7644 25.5039 62.2429 25.0892 62.391 24.6996C62.694 23.8862 62.4912 22.1729 62.4434 21.1248C62.3955 20.0768 62.6006 18.8761 61.532 18.949C61.3999 19.3864 61.6072 19.7942 61.6391 20.193C61.6432 20.7469 61.6074 21.3005 61.532 21.8493C61.4887 22.4144 61.5001 22.9589 61.4227 23.4442C61.2313 24.7338 60.6594 25.8069 60.4612 26.978Z" fill="black"/>
<path fill-rule="evenodd" clip-rule="evenodd" d="M42.469 24.9069C42.8996 24.9776 43.2755 24.5469 43.754 24.4923C44.0917 23.7949 44.3603 23.0661 44.556 22.3164C43.7497 23.0846 43.048 23.9556 42.469 24.9069Z" fill="black"/>
<path fill-rule="evenodd" clip-rule="evenodd" d="M24.4196 22.1615C25.0029 21.1454 25.3902 19.4525 25.4927 17.9146C25.5201 17.4589 25.6294 16.6182 25.1692 16.4109C24.8707 16.6387 24.8912 17.0944 24.7955 17.5C24.6178 18.2473 24.4265 19.0447 24.2601 19.8809C24.1713 20.3365 24.1804 20.8811 24.046 21.1248C23.6951 21.7423 22.7177 21.462 21.8496 21.4347C22.3941 21.9792 23.3488 22.1273 24.4196 22.1615Z" fill="black"/>
<path fill-rule="evenodd" clip-rule="evenodd" d="M91.8982 20.97C91.3013 20.4482 90.5722 20.1019 89.9707 19.5187C89.6887 19.2353 89.4374 18.923 89.2211 18.5868C88.9933 18.2564 88.8429 17.8828 88.5239 17.6025C88.8748 19.1974 89.6631 20.3639 90.9869 21.0201C91.2352 20.872 91.7023 21.0588 91.8982 20.97Z" fill="black"/>
<path fill-rule="evenodd" clip-rule="evenodd" d="M49.4408 20.0381C49.7188 19.9948 50.1995 19.0675 50.1904 18.7941C50.1767 18.3384 49.7097 18.1106 49.4408 17.8098C49.2995 18.4819 49.213 19.4434 49.4408 20.0381Z" fill="black"/>
<path fill-rule="evenodd" clip-rule="evenodd" d="M4.81865 15.1167C4.66372 15.3924 4.12147 15.8936 3.96198 16.3083C3.68858 17.026 3.73415 18.5662 4.55208 18.3793C5.37002 18.1925 4.98725 15.8184 4.81865 15.1167Z" fill="black"/>
<path fill-rule="evenodd" clip-rule="evenodd" d="M48.6274 15.9461C49.4362 15.2626 49.001 13.7019 48.6274 12.5285C48.3745 11.7379 48.0646 10.8106 47.1806 11.0772C46.9869 11.4782 47.2626 11.9088 47.3948 12.2688C47.8163 13.4171 48.2583 14.652 48.6274 15.9461Z" fill="black"/>
<path fill-rule="evenodd" clip-rule="evenodd" d="M59.8187 8.38184C59.5441 8.48859 59.3039 8.66819 59.1238 8.90131C59.2605 9.84911 59.7458 10.7901 60.0351 11.8017C60.3359 12.8566 60.5705 13.9639 61.1606 14.7021C61.2472 14.7157 61.2518 14.6519 61.3224 14.6496C61.1379 12.2528 60.3541 10.4392 59.8187 8.38184Z" fill="black"/>
<path fill-rule="evenodd" clip-rule="evenodd" d="M4.55664 14.1326C4.61816 14.1326 4.65233 14.1326 4.66372 14.0801C5.68899 11.8428 5.90772 8.82621 6.64591 6.31089C6.37934 5.82331 5.9943 5.4451 5.46799 5.99875C5.11712 8.67128 4.84372 11.4099 4.55664 14.1326Z" fill="black"/>
<path fill-rule="evenodd" clip-rule="evenodd" d="M78.3489 10.5055C78.554 10.0999 78.5881 9.52804 78.5631 8.9106C78.437 8.71547 78.2481 8.56919 78.0277 8.49593C77.3441 8.37973 76.6037 9.17944 76.7951 9.94498C76.909 10.3915 77.7087 10.788 78.3489 10.5055Z" fill="black"/>
<path fill-rule="evenodd" clip-rule="evenodd" d="M78.8842 7.86465H79.046C79.6034 7.34833 80.1058 6.77569 80.5452 6.15587C80.9257 5.65007 81.477 5.11693 81.4018 4.44481C81.035 4.33544 80.7753 4.72277 80.5452 4.96428C79.8617 5.68652 79.0278 6.49534 78.8318 7.70972C78.8159 7.79174 78.882 7.79174 78.8842 7.86465Z" fill="black"/>
<path fill-rule="evenodd" clip-rule="evenodd" d="M59.0099 7.24265C59.1352 6.65483 59.0281 5.84373 59.0623 5.17161C58.7502 5.11009 58.2968 5.00301 58.0461 5.17161C58.3469 5.88702 58.479 6.75964 59.0099 7.24265Z" fill="black"/>
<path fill-rule="evenodd" clip-rule="evenodd" d="M89.1665 13.7703C90.2852 13.2281 90.8229 11.6765 92.1648 11.1798C91.994 10.5556 91.4813 10.9771 91.2535 11.1274C90.3399 11.7403 89.7247 12.8886 89.1665 13.7703Z" fill="black"/>
<path fill-rule="evenodd" clip-rule="evenodd" d="M46.9663 29.4136C46.3043 29.0863 45.6608 28.7227 45.0388 28.3245C44.5626 28.0169 43.5442 27.5088 43.485 26.9256C43.4326 26.4015 44.025 25.7431 44.2346 25.4241C44.8041 24.5245 45.4497 23.6753 46.1643 22.886C46.4674 22.5488 46.9549 21.8812 47.3423 21.8493C47.5952 21.8311 48.0714 22.1455 48.3584 22.305C48.9189 22.6399 49.4976 23.1503 50.3406 23.1868C52.0175 23.2574 51.7988 21.6557 51.4661 20.1816C51.2588 19.2702 51.0287 18.3976 50.8214 17.6435C49.4543 12.6174 47.8276 7.84645 46.7522 2.62213C43.9726 2.77934 41.1496 2.23936 39.147 3.25324C38.618 3.54162 38.1636 3.94942 37.8199 4.44421C37.4762 4.939 37.2527 5.50715 37.167 6.10349C37.1167 6.9321 37.1342 7.76345 37.2194 8.5892C37.3675 11.0248 37.2354 13.4513 37.1124 15.9461C37.0318 18.3813 37.0858 20.819 37.2741 23.2483C37.3243 24.0617 37.3037 24.875 37.4336 25.5791C37.748 27.2696 39.0285 28.8554 40.7008 29.2062C41.8947 29.4546 43.4349 29.3065 44.6629 29.3612C45.3738 29.3931 46.219 29.4363 46.9663 29.4136ZM44.5558 22.3164C44.3572 23.0665 44.0856 23.7952 43.7447 24.4923C43.2663 24.5469 42.8903 24.9776 42.4597 24.9069C43.0415 23.9551 43.7463 23.0841 44.5558 22.3164ZM49.4407 17.8166C49.7095 18.1151 50.1766 18.3361 50.1902 18.8009C50.1902 19.0743 49.7186 20.0016 49.4407 20.0449C49.2128 19.4434 49.2994 18.4819 49.4407 17.8166ZM47.3901 12.2665C47.258 11.9065 46.9823 11.4759 47.1759 11.0749C48.06 10.8083 48.3698 11.7356 48.6227 12.5262C48.9964 13.7019 49.4315 15.2603 48.6227 15.9438C48.2582 14.652 47.8162 13.4171 47.3901 12.2665Z" fill="#FEEE62"/>
</svg>
